<svg width="100" height="16" viewBox="0 0 100 16" fill="none" xmlns="http://www.w3.org/2000/svg">
<path d="M9.77539 12.0703H4.63867L3.66211 15H0.546875L5.83984 0.78125H8.55469L13.877 15H10.7617L9.77539 12.0703ZM5.42969 9.69727H8.98438L7.19727 4.375L5.42969 9.69727ZM20.4688 9.79492H18.1348V15H15.2051V0.78125H20.4883C22.168 0.78125 23.4635 1.1556 24.375 1.9043C25.2865 2.65299 25.7422 3.71094 25.7422 5.07812C25.7422 6.04818 25.5306 6.85872 25.1074 7.50977C24.6908 8.1543 24.056 8.66862 23.2031 9.05273L26.2793 14.8633V15H23.1348L20.4688 9.79492ZM18.1348 7.42188H20.498C21.2337 7.42188 21.8034 7.23633 22.207 6.86523C22.6107 6.48763 22.8125 5.97005 22.8125 5.3125C22.8125 4.64193 22.6204 4.11458 22.2363 3.73047C21.8587 3.34635 21.276 3.1543 20.4883 3.1543H18.1348V7.42188ZM38.1934 3.1543H33.8379V15H30.9082V3.1543H26.6113V0.78125H38.1934V3.1543ZM42.9883 15H40.0586V0.78125H42.9883V15ZM56.875 10.2637C56.7643 11.7936 56.1979 12.998 55.1758 13.877C54.1602 14.7559 52.819 15.1953 51.1523 15.1953C49.3294 15.1953 47.8939 14.5833 46.8457 13.3594C45.804 12.1289 45.2832 10.4427 45.2832 8.30078V7.43164C45.2832 6.06445 45.5241 4.86003 46.0059 3.81836C46.4876 2.77669 47.1745 1.97917 48.0664 1.42578C48.9648 0.865885 50.0065 0.585938 51.1914 0.585938C52.832 0.585938 54.1536 1.02539 55.1562 1.9043C56.1589 2.7832 56.7383 4.01693 56.8945 5.60547H53.9648C53.8932 4.6875 53.6361 4.02344 53.1934 3.61328C52.7572 3.19661 52.0898 2.98828 51.1914 2.98828C50.2148 2.98828 49.4824 3.33984 48.9941 4.04297C48.5124 4.73958 48.265 5.82357 48.252 7.29492V8.36914C48.252 9.9056 48.4831 11.0286 48.9453 11.7383C49.4141 12.4479 50.1497 12.8027 51.1523 12.8027C52.0573 12.8027 52.7311 12.5977 53.1738 12.1875C53.623 11.7708 53.8802 11.1296 53.9453 10.2637H56.875ZM66.8262 12.0703H61.6895L60.7129 15H57.5977L62.8906 0.78125H65.6055L70.9277 15H67.8125L66.8262 12.0703ZM62.4805 9.69727H66.0352L64.248 4.375L62.4805 9.69727ZM75.1855 12.6465H81.4062V15H72.2559V0.78125H75.1855V12.6465ZM93.1641 5.68359L95.8301 0.78125H99.1992L95.0586 7.83203L99.3066 15H95.8984L93.1641 10.0195L90.4297 15H87.0215L91.2695 7.83203L87.1289 0.78125H90.498L93.1641 5.68359Z" fill="url(#paint0_linear)"/>
<defs>
<linearGradient id="paint0_linear" x1="11.5" y1="8" x2="96.5" y2="8" gradientUnits="userSpaceOnUse">
<stop stop-color="#0F8CFF"/>
<stop offset="0.0001" stop-color="#136A76" stop-opacity="0.994792"/>
<stop offset="0.0002" stop-color="#0066FF" stop-opacity="0.995334"/>
<stop offset="1" stop-color="#15E2B1"/>
</linearGradient>
</defs>
</svg>
