<svg width="101" height="16" viewBox="0 0 101 16" fill="none" xmlns="http://www.w3.org/2000/svg">
<path d="M8.62305 9.18945H2.99805V15H0.0683594V0.78125H9.32617V3.1543H2.99805V6.82617H8.62305V9.18945ZM17.1777 12.0703H12.041L11.0645 15H7.94922L13.2422 0.78125H15.957L21.2793 15H18.1641L17.1777 12.0703ZM12.832 9.69727H16.3867L14.5996 4.375L12.832 9.69727ZM29.9805 11.2695C29.9805 10.7161 29.7852 10.293 29.3945 10C29.0039 9.70052 28.3008 9.38802 27.2852 9.0625C26.2695 8.73047 25.4655 8.40495 24.873 8.08594C23.2585 7.21354 22.4512 6.03841 22.4512 4.56055C22.4512 3.79232 22.666 3.10872 23.0957 2.50977C23.5319 1.9043 24.1536 1.43229 24.9609 1.09375C25.7747 0.755208 26.6862 0.585938 27.6953 0.585938C28.7109 0.585938 29.6159 0.771484 30.4102 1.14258C31.2044 1.50716 31.8197 2.02474 32.2559 2.69531C32.6986 3.36589 32.9199 4.1276 32.9199 4.98047H29.9902C29.9902 4.32943 29.7852 3.82487 29.375 3.4668C28.9648 3.10221 28.3887 2.91992 27.6465 2.91992C26.9303 2.91992 26.3737 3.07292 25.9766 3.37891C25.5794 3.67839 25.3809 4.07552 25.3809 4.57031C25.3809 5.03255 25.612 5.41992 26.0742 5.73242C26.543 6.04492 27.2298 6.33789 28.1348 6.61133C29.8014 7.11263 31.0156 7.73438 31.7773 8.47656C32.5391 9.21875 32.9199 10.1432 32.9199 11.25C32.9199 12.4805 32.4544 13.4473 31.5234 14.1504C30.5924 14.847 29.3392 15.1953 27.7637 15.1953C26.6699 15.1953 25.6738 14.9967 24.7754 14.5996C23.877 14.196 23.1901 13.6458 22.7148 12.9492C22.2461 12.2526 22.0117 11.4453 22.0117 10.5273H24.9512C24.9512 12.0964 25.8887 12.8809 27.7637 12.8809C28.4603 12.8809 29.0039 12.7409 29.3945 12.4609C29.7852 12.1745 29.9805 11.7773 29.9805 11.2695ZM45.6152 3.1543H41.2598V15H38.3301V3.1543H34.0332V0.78125H45.6152V3.1543ZM58.8574 15H55.9277L50.2246 5.64453V15H47.2949V0.78125H50.2246L55.9375 10.1562V0.78125H58.8574V15ZM69.9707 8.83789H64.3457V12.6465H70.9473V15H61.416V0.78125H70.9277V3.1543H64.3457V6.54297H69.9707V8.83789ZM83.7402 10.8984L85.6543 0.78125H88.5742L85.4199 15H82.4707L80.1562 5.48828L77.8418 15H74.8926L71.7383 0.78125H74.6582L76.582 10.8789L78.9258 0.78125H81.4062L83.7402 10.8984ZM97.5391 11.2695C97.5391 10.7161 97.3438 10.293 96.9531 10C96.5625 9.70052 95.8594 9.38802 94.8438 9.0625C93.8281 8.73047 93.0241 8.40495 92.4316 8.08594C90.8171 7.21354 90.0098 6.03841 90.0098 4.56055C90.0098 3.79232 90.2246 3.10872 90.6543 2.50977C91.0905 1.9043 91.7122 1.43229 92.5195 1.09375C93.3333 0.755208 94.2448 0.585938 95.2539 0.585938C96.2695 0.585938 97.1745 0.771484 97.9688 1.14258C98.763 1.50716 99.3783 2.02474 99.8145 2.69531C100.257 3.36589 100.479 4.1276 100.479 4.98047H97.5488C97.5488 4.32943 97.3438 3.82487 96.9336 3.4668C96.5234 3.10221 95.9473 2.91992 95.2051 2.91992C94.4889 2.91992 93.9323 3.07292 93.5352 3.37891C93.138 3.67839 92.9395 4.07552 92.9395 4.57031C92.9395 5.03255 93.1706 5.41992 93.6328 5.73242C94.1016 6.04492 94.7884 6.33789 95.6934 6.61133C97.36 7.11263 98.5742 7.73438 99.3359 8.47656C100.098 9.21875 100.479 10.1432 100.479 11.25C100.479 12.4805 100.013 13.4473 99.082 14.1504C98.151 14.847 96.8978 15.1953 95.3223 15.1953C94.2285 15.1953 93.2324 14.9967 92.334 14.5996C91.4355 14.196 90.7487 13.6458 90.2734 12.9492C89.8047 12.2526 89.5703 11.4453 89.5703 10.5273H92.5098C92.5098 12.0964 93.4473 12.8809 95.3223 12.8809C96.0189 12.8809 96.5625 12.7409 96.9531 12.4609C97.3438 12.1745 97.5391 11.7773 97.5391 11.2695Z" fill="url(#paint0_linear)"/>
<defs>
<linearGradient id="paint0_linear" x1="11.5" y1="8" x2="96.5" y2="8" gradientUnits="userSpaceOnUse">
<stop stop-color="#0F8CFF"/>
<stop offset="0.0001" stop-color="#136A76" stop-opacity="0.994792"/>
<stop offset="0.0002" stop-color="#0066FF" stop-opacity="0.995334"/>
<stop offset="1" stop-color="#15E2B1"/>
</linearGradient>
</defs>
</svg>
