<svg width="184" height="184" viewBox="0 0 184 184" fill="none" xmlns="http://www.w3.org/2000/svg">
<circle cx="92" cy="92" r="91.5" stroke="black"/>
<circle cx="92" cy="92" r="79.5" fill="black" stroke="#C4C4C4"/>
<path d="M84 63.5H42L54 74.5H84V63.5Z" fill="url(#paint0_linear)"/>
<path d="M42 120.5V101L54 90H84V101H54V120.5H42Z" fill="url(#paint1_linear)"/>
<path d="M104 120.5H93L104 110V120.5Z" fill="url(#paint2_linear)"/>
<path d="M104 83V101L93 90V63.5H104L131.5 97.5V63.5H141.5V120.5H135.5L104 83Z" fill="url(#paint3_linear)"/>
<path d="M84 63.5H42L54 74.5H84V63.5Z" stroke="white" stroke-width="3"/>
<path d="M42 120.5V101L54 90H84V101H54V120.5H42Z" stroke="white" stroke-width="3"/>
<path d="M104 120.5H93L104 110V120.5Z" stroke="white" stroke-width="3"/>
<path d="M104 83V101L93 90V63.5H104L131.5 97.5V63.5H141.5V120.5H135.5L104 83Z" stroke="white" stroke-width="3"/>
<defs>
<linearGradient id="paint0_linear" x1="42" y1="92" x2="141" y2="92" gradientUnits="userSpaceOnUse">
<stop stop-color="#0F8CFF"/>
<stop offset="1" stop-color="#15E2B1"/>
</linearGradient>
<linearGradient id="paint1_linear" x1="42" y1="92" x2="141" y2="92" gradientUnits="userSpaceOnUse">
<stop stop-color="#0F8CFF"/>
<stop offset="1" stop-color="#15E2B1"/>
</linearGradient>
<linearGradient id="paint2_linear" x1="42" y1="92" x2="141" y2="92" gradientUnits="userSpaceOnUse">
<stop stop-color="#0F8CFF"/>
<stop offset="1" stop-color="#15E2B1"/>
</linearGradient>
<linearGradient id="paint3_linear" x1="42" y1="92" x2="141" y2="92" gradientUnits="userSpaceOnUse">
<stop stop-color="#0F8CFF"/>
<stop offset="1" stop-color="#15E2B1"/>
</linearGradient>
</defs>
</svg>
